{"title":"Frantic.1988.iNTERNAL.BDRip.XviD-EXViDiNT","uid":6958146,"size":1483445553,"categoryP":"video","categoryS":"movies","magnet":"?xt=urn:btih:db048365b670fa517cb846205be61e882bafc069&amp;dn=Frantic.1988.iNTERNAL.BDRip.XviD-EXViDiNT&amp;tr=udp%3A%2F%2Ftracker.openbittorrent.com%3A80&amp;tr=udp%3A%2F%2Fopen.demonii.com%3A1337&amp;tr=udp%3A%2F%2Ftracker.coppersurfer.tk%3A6969&amp;tr=udp%3A%2F%2Fexodus.desync.com%3A6969","seeders":0,"leechers":1,"uploader":"TvTeam","files":8,"time":1326661321,"description":". \n &lt;a href=&quot;\nhttp://www.torrenting.com&quot; rel=&quot;nofollow&quot; target=&quot;_NEW&quot;&gt;\nhttp://www.torrenting.com&lt;/a&gt;          :     Once &amp; For all ;)\n\n\n               www . Torrenting . Com \n\n(((((((((((((= Enjoy No RAR releases =))))))))))))))))))))\n\n\n...................................NFO:....................................\n\n.                                                                                                     \n       \n     \n     \n       \n       \n     \n     \n                                         \n                                         \n                EXVID                    \n                                         \n         \n                                         \n         Filled the Archives             \n                                         \n         \n                                         \n                With:                    \n                                         \n         \n                                         \n                                    \n     E240                           \n                                    \n     SP               (C) 2009      \n                                         \n     \n     \n     \n                                                                                  \n                                                                                   \n                   Frantic.1988.iNTERNAL.BDRip.XviD-EXViDiNT                        \n                                                                                   \n                                                                                  \n     \n                                                                                               \nEXViD aims to iNTERNAL those releases which have been lost in the archives.\nEXViD aims to PRE non-internal releases which have poor sources and are likely skipped by others. &lt;a href=&quot;\nhttp://www.imdb.com/title/tt0095174/&quot; rel=&quot;nofollow&quot; target=&quot;_NEW&quot;&gt;\nhttp://www.imdb.com/title/tt0095174/&lt;/a&gt;\nSubtitles: EN, ES, FR, IT, PT, SV, DA, FI, NO, RO, BG, CS, EL, PL, TH, ZH\nDate: 2012.0\n\nDirector: Roman Polanski\n\nGenre: Crime | Drama | Mystery\n\nPlot:\nIn a hotel room in Paris, a doctor comes out of the shower and finds that his wife has \ndisappeared. He soon finds himself caught up in a world of intrigue, espionage, gangsters, \ndrugs and murder. \n\nCast:\nHarrison Ford \t\t... \tDr. Richard Walker\nBetty Buckley \t\t... \tSondra Walker\nEmmanuelle Seigner \t... \tMichelle\nDjiby Soumare \t\t... \tTaxi Driver\nDominique Virton \t... \tDesk Clerk\nGrard Klein \t\t... \tGaillard\nStphane D'Audeville \t... \tBellboy\nLaurent Spielvogel \t... \tHall Porter\nAlain Doutey \t\t... \tHall Porter\nJacques Ciron \t\t... \tLe Grand Hotel Manager\nRoch Leibovici \t\t... \tBellboy 2\nLouise Vincent \t\t... \tTourist\nPatrice Melennec \t... \tHotel Detective Le Grand Hotel\nElla Jaroszewicz \t... \tRestroom Attendant\nJolle Lagneau \t\t... \tFlorist \n\nStats:\nFormat                                   : AVI\nFormat/Info                              : Audio Video Interleave\nFormat profile                           : OpenDML\nFile size                                : 1.37 GiB\nDuration                                 : 1h 59mn\nOverall bit rate                         : 1 638 Kbps\n\nVideo\nID                                       : 0\nFormat                                   : MPEG-4 Visual\nFormat profile                           : Advanced Simple@L5\nFormat settings, BVOP                    : 2\nFormat settings, QPel                    : No\nFormat settings, GMC                     : No warppoints\nFormat settings, Matrix                  : Default (MPEG)\nCodec ID                                 : XVID\nCodec ID/Hint                            : XviD\nDuration                                 : 1h 59mn\nBit rate                                 : 1 401 Kbps\nWidth                                    : 640 pixels\nHeight                                   : 352 pixels\nDisplay aspect ratio                     : 16:9\nFrame rate                               : 23.976 fps\nColor space                              : YUV\nChroma subsampling                       : 4:2:0\nBit depth                                : 8 bits\nScan type                                : Progressive\nCompression mode                         : Lossy\nBits/(Pixel*Frame)                       : 0.259\nStream size                              : 1.17 GiB (85%)\nWriting library                          : XviD 64\n\nAudio\nID                                       : 1\nFormat                                   : MPEG Audio\nFormat version                           : Version 1\nFormat profile                           : Layer 3\nMode                                     : Joint stereo\nMode extension                           : MS Stereo\nCodec ID                                 : 55\nCodec ID/Hint                            : MP3\nDuration                                 : 1h 59mn\nBit rate mode                            : Variable\nBit rate                                 : 222 Kbps\nChannel(s)                               : 2 channels\nSampling rate                            : 48.0 KHz\nCompression mode                         : Lossy\nStream size                              : 143 MiB (15%)\nAlignment                                : Aligned on interleaves\nInterleave, duration                     : 925 ms (22.18 video frames)\nInterleave, preload duration             : 72 ms\nWriting library                          : LAME3.98.4\n\n\nRelease notes:\nEnjoy!\n\n\nLooking for:\n75TB+ Archives\nDUTCH/FLEMiSH Archives\n                                                                                                    \nGreets: CRBS EPiSODE FiCO FLS iLS KLASSiGER LiPSYNC MADE NODLABS RUNNER SPRiNTER      \n   \n\n                                                                    ASCII DONE BY XX^NFO 2oo9","torrent":{"xt":"urn:btih:db048365b670fa517cb846205be61e882bafc069","amp;dn":"Frantic.1988.iNTERNAL.BDRip.XviD-EXViDiNT","amp;tr":["udp%3A%2F%2Ftracker.openbittorrent.com%3A80","udp%3A%2F%2Fopen.demonii.com%3A1337","udp%3A%2F%2Ftracker.coppersurfer.tk%3A6969","udp%3A%2F%2Fexodus.desync.com%3A6969"],"infoHash":"db048365b670fa517cb846205be61e882bafc069","infoHashBuffer":{"type":"Buffer","data":[219,4,131,101,182,112,250,81,124,184,70,32,91,230,30,136,43,175,192,105]},"announce":[],"urlList":[]}}